<?xml version="1.0"?>
<svg xmlns="http://www.w3.org/2000/svg" xmlns:xlink="http://www.w3.org/1999/xlink" xmlns:svgjs="http://svgjs.com/svgjs" version="1.1" width="512" height="512" x="0" y="0" viewBox="0 0 605.689 605.689" style="enable-background:new 0 0 512 512" xml:space="preserve" class=""><g><g xmlns="http://www.w3.org/2000/svg"><g id="Page-1_43_"><g id="_x30_44---Plumbing" transform="translate(-1)"><path id="Shape_190_" d="m576.407 201.884h-11.951c-4.213-12.094-15.618-20.198-28.425-20.198s-24.211 8.104-28.425 20.198h-32.139v-102.798c12.094-4.213 20.198-15.618 20.198-28.425s-8.104-24.211-20.198-28.425v-11.951c0-16.724-13.558-30.282-30.282-30.282h-141.318c-16.724 0-30.282 13.558-30.282 30.282v11.951c-12.094 4.213-20.198 15.618-20.198 28.425s8.104 24.211 20.198 28.425v102.798h-42.234c-4.213-12.094-15.618-20.198-28.425-20.198s-24.212 8.104-28.425 20.198h-22.045v-23.62c31.442-18.2 50.704-51.868 50.46-88.197s-19.957-69.734-51.641-87.511c-6.016-3.43-13.402-3.405-19.395.066s-9.689 9.866-9.707 16.791v51.248c.028 5.519-2.226 10.805-6.228 14.606-4.034 3.801-9.431 5.814-14.969 5.582-11.085-1.168-19.424-10.639-19.179-21.783v-49.652c.031-6.833-3.576-13.166-9.468-16.625-6-3.585-13.459-3.685-19.552-.262-31.725 17.657-51.497 51.017-51.759 87.324s19.03 69.948 50.497 88.06v249.828c-31.484 18.114-50.783 51.77-50.513 88.092.27 36.322 20.066 69.688 51.815 87.333 6.094 3.371 13.519 3.252 19.502-.313 5.893-3.455 9.503-9.784 9.478-16.615v-49.653c-.261-11.106 8.016-20.566 19.058-21.783 5.547-.311 10.978 1.678 15.012 5.498s6.316 9.134 6.307 14.69v51.268c-.039 6.903 3.635 13.295 9.62 16.736 5.979 3.539 13.398 3.597 19.431.151 31.714-17.76 51.456-51.174 51.71-87.521.255-36.347-19.017-70.034-50.479-88.237v-23.62h22.035c4.213 12.094 15.618 20.198 28.425 20.198s24.211-8.104 28.425-20.198h84.336c8.044.028 15.764-3.172 21.43-8.883l11.295-11.305h84.861c4.268 12.073 15.67 20.156 28.475 20.188h45.867c4.213 12.094 15.618 20.198 28.425 20.198s24.212-8.104 28.425-20.198h11.951c16.724 0 30.282-13.558 30.282-30.282v-141.317c.001-16.724-13.557-30.282-30.281-30.282zm-282.634-171.599c0-5.575 4.519-10.094 10.094-10.094h141.317c5.575 0 10.094 4.519 10.094 10.094v10.094h-161.505zm-10.094 30.282h181.693c5.575 0 10.094 4.519 10.094 10.094s-4.519 10.094-10.094 10.094h-181.693c-5.575 0-10.094-4.519-10.094-10.094 0-5.574 4.519-10.094 10.094-10.094zm10.094 40.377h161.505v100.941h-161.505zm-111.034 413.856c.014 28.911-15.37 55.642-40.376 70.154v-49.966c.016-11.093-4.533-21.705-12.579-29.342s-18.88-11.628-29.957-11.034c-21.852 1.645-38.621 20.061-38.216 41.971v48.351c-25.836-14.922-41.356-42.858-40.376-72.677 1.324-29.583 18.498-56.153 44.929-69.508 3.4-1.718 5.543-5.204 5.542-9.014v-261.82c-.002-3.806-2.145-7.287-5.542-9.004-26.427-13.353-43.601-39.918-44.929-69.498-.982-29.82 14.539-57.757 40.376-72.677v48.351c-.358 21.941 16.472 40.348 38.357 41.951 11.054.553 21.85-3.455 29.865-11.088 8.014-7.633 12.544-18.221 12.531-29.288v-49.946c25.773 14.928 41.263 42.807 40.324 72.576s-18.154 56.617-44.816 69.892c-3.447 1.713-5.619 5.236-5.602 9.085v261.154c-.017 3.849 2.156 7.372 5.602 9.085 27.545 13.537 44.961 41.598 44.867 72.292zm-30.283-292.728h20.188v161.505h-20.188zm50.471 181.694c-5.575 0-10.094-4.519-10.094-10.094v-181.694c0-5.575 4.519-10.094 10.094-10.094s10.094 4.519 10.094 10.094v181.693c0 5.575-4.52 10.095-10.094 10.095zm174.425-73.687-19.35-25.871 46.806-40.225v45.746c-.002 3.983 1.175 7.878 3.382 11.194l17.392 26.144 3.26 16.322h-60.282l6.914-6.935c7.04-7.128 7.837-18.322 1.878-26.375zm74.484 45.423-6.45-32.301c-.518-2.599-1.547-5.07-3.028-7.268l-17.362-26.204v-48.542c.051-7.393-4.263-14.121-11.003-17.16-2.493-1.155-5.206-1.758-7.954-1.766-4.504.009-8.854 1.639-12.254 4.593l-48.936 42.001c-8.055 6.941-9.376 18.926-3.028 27.456l19.371 25.881-38.357 38.428c-1.894 1.904-4.471 2.969-7.157 2.958h-82.468v-161.506h272.54v161.505h-44.01c-4.803.006-8.944-3.371-9.904-8.075zm84.195 28.264c-5.575 0-10.094-4.519-10.094-10.094v-181.694c0-5.575 4.519-10.094 10.094-10.094s10.094 4.519 10.094 10.094v181.693c0 5.575-4.52 10.095-10.094 10.095zm50.47-30.283c0 5.575-4.519 10.094-10.094 10.094h-10.094v-161.505h10.094c5.575 0 10.094 4.519 10.094 10.094z" fill="#ffffff" data-original="#000000" style="" class=""/></g></g></g></g></svg>
